<?xml version="1.0" encoding="us-ascii" standalone="no"?><svg xmlns="http://www.w3.org/2000/svg" xmlns:xlink="http://www.w3.org/1999/xlink" contentStyleType="text/css" height="853px" preserveAspectRatio="none" style="width:928px;height:853px;background:#FFFFFF;" version="1.1" viewBox="0 0 928 853" width="928px" zoomAndPan="magnify"><defs/><g><rect fill="#90EE90" height="841.3125" style="stroke:#181818;stroke-width:0.5;" width="117" x="1" y="6"/><text fill="#000000" font-family="sans-serif" font-size="13" font-weight="bold" lengthAdjust="spacing" textLength="111" x="4" y="18.0669">PX4 &amp; dop_sim</text><rect fill="#ADD8E6" height="841.3125" style="stroke:#181818;stroke-width:0.5;" width="308" x="159.5" y="6"/><text fill="#000000" font-family="sans-serif" font-size="13" font-weight="bold" lengthAdjust="spacing" textLength="302" x="162.5" y="18.0669">(TX2 NX)  ndp_nmpc_qd/controller_node</text><rect fill="#FFFFFF" height="841.3125" style="stroke:#181818;stroke-width:0.5;" width="261.5" x="635.5" y="6"/><text fill="#000000" font-family="sans-serif" font-size="13" font-weight="bold" lengthAdjust="spacing" textLength="206" x="663.25" y="18.0669">PC -&gt; cmd_pc/planner_node</text><rect fill="none" height="61.3984" style="stroke:#000000;stroke-width:1.5;" width="298.5" x="11" y="217.2266"/><rect fill="none" height="119.6641" style="stroke:#000000;stroke-width:1.5;" width="713.5" x="189.5" y="579.9531"/><line style="stroke:#181818;stroke-width:0.5;stroke-dasharray:5.0,5.0;" x1="59" x2="59" y1="73.4297" y2="796.0156"/><line style="stroke:#181818;stroke-width:0.5;stroke-dasharray:5.0,5.0;" x1="249.5" x2="249.5" y1="73.4297" y2="796.0156"/><line style="stroke:#181818;stroke-width:0.5;stroke-dasharray:5.0,5.0;" x1="368.5" x2="368.5" y1="73.4297" y2="796.0156"/><line style="stroke:#181818;stroke-width:0.5;stroke-dasharray:5.0,5.0;" x1="673.5" x2="673.5" y1="73.4297" y2="796.0156"/><line style="stroke:#181818;stroke-width:0.5;stroke-dasharray:5.0,5.0;" x1="873" x2="873" y1="73.4297" y2="796.0156"/><text fill="#000000" font-family="sans-serif" font-size="14" lengthAdjust="spacing" textLength="71" x="21" y="70.1279">quadrotor</text><ellipse cx="59.5" cy="41.1328" fill="#E2E2F0" rx="12" ry="12" style="stroke:#181818;stroke-width:0.5;"/><line style="stroke:#181818;stroke-width:0.5;" x1="47.5" x2="71.5" y1="55.1328" y2="55.1328"/><text fill="#000000" font-family="sans-serif" font-size="14" lengthAdjust="spacing" textLength="71" x="21" y="808.0107">quadrotor</text><ellipse cx="59.5" cy="827.3125" fill="#E2E2F0" rx="12" ry="12" style="stroke:#181818;stroke-width:0.5;"/><line style="stroke:#181818;stroke-width:0.5;" x1="47.5" x2="71.5" y1="841.3125" y2="841.3125"/><rect fill="#E2E2F0" height="30.2969" rx="2.5" ry="2.5" style="stroke:#181818;stroke-width:0.5;" width="100" x="199.5" y="42.1328"/><text fill="#000000" font-family="sans-serif" font-size="14" lengthAdjust="spacing" textLength="86" x="206.5" y="62.1279">tmr_control</text><rect fill="#E2E2F0" height="30.2969" rx="2.5" ry="2.5" style="stroke:#181818;stroke-width:0.5;" width="100" x="199.5" y="795.0156"/><text fill="#000000" font-family="sans-serif" font-size="14" lengthAdjust="spacing" textLength="86" x="206.5" y="815.0107">tmr_control</text><rect fill="#E2E2F0" height="30.2969" rx="2.5" ry="2.5" style="stroke:#181818;stroke-width:0.5;" width="118" x="309.5" y="42.1328"/><text fill="#000000" font-family="sans-serif" font-size="14" lengthAdjust="spacing" textLength="104" x="316.5" y="62.1279">pt_pub_server</text><rect fill="#E2E2F0" height="30.2969" rx="2.5" ry="2.5" style="stroke:#181818;stroke-width:0.5;" width="118" x="309.5" y="795.0156"/><text fill="#000000" font-family="sans-serif" font-size="14" lengthAdjust="spacing" textLength="104" x="316.5" y="815.0107">pt_pub_server</text><rect fill="#E2E2F0" height="30.2969" rx="2.5" ry="2.5" style="stroke:#181818;stroke-width:0.5;" width="69" x="639.5" y="42.1328"/><text fill="#000000" font-family="sans-serif" font-size="14" lengthAdjust="spacing" textLength="55" x="646.5" y="62.1279">planner</text><rect fill="#E2E2F0" height="30.2969" rx="2.5" ry="2.5" style="stroke:#181818;stroke-width:0.5;" width="69" x="639.5" y="795.0156"/><text fill="#000000" font-family="sans-serif" font-size="14" lengthAdjust="spacing" textLength="55" x="646.5" y="815.0107">planner</text><rect fill="#E2E2F0" height="30.2969" rx="2.5" ry="2.5" style="stroke:#181818;stroke-width:0.5;" width="40" x="853" y="42.1328"/><text fill="#000000" font-family="sans-serif" font-size="14" lengthAdjust="spacing" textLength="26" x="860" y="62.1279">rviz</text><rect fill="#E2E2F0" height="30.2969" rx="2.5" ry="2.5" style="stroke:#181818;stroke-width:0.5;" width="40" x="853" y="795.0156"/><text fill="#000000" font-family="sans-serif" font-size="14" lengthAdjust="spacing" textLength="26" x="860" y="815.0107">rviz</text><path d="M197,88.4297 L197,166.4297 L420,166.4297 L420,98.4297 L410,88.4297 L197,88.4297 " fill="#FFFFFF" style="stroke:#181818;stroke-width:0.5;"/><path d="M410,88.4297 L410,98.4297 L420,98.4297 L410,88.4297 " fill="#FFFFFF" style="stroke:#181818;stroke-width:0.5;"/><text fill="#000000" font-family="sans-serif" font-size="13" lengthAdjust="spacing" textLength="113" x="205.5" y="105.4966">- &#27599;&#27425;&#36816;&#34892;&#37117;&#35201;&#37325;&#21551;</text><line style="stroke:#181818;stroke-width:1.0;" x1="198" x2="414" y1="108.5625" y2="108.5625"/><text fill="#000000" font-family="sans-serif" font-size="13" lengthAdjust="spacing" textLength="181" x="205.5" y="124.6294">1. &#31163;&#25955;traj.&#65292;&#29983;&#25104;target point</text><text fill="#000000" font-family="sans-serif" font-size="13" lengthAdjust="spacing" textLength="197" x="205.5" y="139.7622">2. &#36816;&#34892;NMPC&#65292;&#25191;&#34892;traj. tracking</text><text fill="#000000" font-family="sans-serif" font-size="13" lengthAdjust="spacing" textLength="133" x="205.5" y="154.895">3. &#21521;&#24213;&#23618;&#25511;&#21046;&#22120;&#21457;&#21629;&#20196;</text><path d="M625,88.4297 L625,204.4297 L921,204.4297 L921,98.4297 L911,88.4297 L625,88.4297 " fill="#FFFFFF" style="stroke:#181818;stroke-width:0.5;"/><path d="M911,88.4297 L911,98.4297 L921,98.4297 L911,88.4297 " fill="#FFFFFF" style="stroke:#181818;stroke-width:0.5;"/><text fill="#000000" font-family="sans-serif" font-size="13" lengthAdjust="spacing" textLength="87" x="631" y="105.4966">- &#21551;&#21160;&#23601;&#19981;&#20851;&#20102;</text><line style="stroke:#181818;stroke-width:1.0;" x1="626" x2="920" y1="108.5625" y2="108.5625"/><text fill="#000000" font-family="sans-serif" font-size="13" lengthAdjust="spacing" textLength="81" x="631" y="124.6294">1. &#35835;&#21462;&#36335;&#24452;&#28857;</text><text fill="#000000" font-family="sans-serif" font-size="13" lengthAdjust="spacing" textLength="163" x="631" y="139.7622">2. minimum snap&#29983;&#25104;traj.</text><text fill="#000000" font-family="sans-serif" font-size="13" lengthAdjust="spacing" textLength="146" x="631" y="154.895">3. &#20197;task&#30340;&#24418;&#24335;&#21457;&#24067;traj.</text><line style="stroke:#181818;stroke-width:1.0;" x1="626" x2="920" y1="161.9609" y2="161.9609"/><text fill="#000000" font-family="sans-serif" font-size="13" lengthAdjust="spacing" textLength="188" x="631" y="178.0278">&#29992;FMS&#24211;transitions&#32534;&#20889;&#29366;&#24577;&#26426;;</text><text fill="#000000" font-family="sans-serif" font-size="13" lengthAdjust="spacing" textLength="275" x="631" y="193.1606">&#21442;&#32771;ROS2&#30340;&#20889;&#27861;&#65292;&#20351;&#29992;class&#30340;&#24418;&#24335;&#32452;&#32455;&#31243;&#24207;&#12290;</text><path d="M11,217.2266 L89,217.2266 L89,224.3594 L79,234.3594 L11,234.3594 L11,217.2266 " fill="#EEEEEE" style="stroke:#000000;stroke-width:1.5;"/><rect fill="none" height="61.3984" style="stroke:#000000;stroke-width:1.5;" width="298.5" x="11" y="217.2266"/><text fill="#000000" font-family="sans-serif" font-size="13" font-weight="bold" lengthAdjust="spacing" textLength="33" x="26" y="230.2935">loop</text><text fill="#000000" font-family="sans-serif" font-size="11" font-weight="bold" lengthAdjust="spacing" textLength="61" x="104" y="229.437">[forever]</text><polygon fill="#181818" points="70.5,266.625,60.5,270.625,70.5,274.625,66.5,270.625" style="stroke:#181818;stroke-width:1.0;"/><line style="stroke:#181818;stroke-width:1.0;" x1="64.5" x2="248.5" y1="270.625" y2="270.625"/><text fill="#000000" font-family="sans-serif" font-size="13" font-weight="bold" lengthAdjust="spacing" textLength="9" x="76.5" y="257.9927">1</text><text fill="#000000" font-family="sans-serif" font-size="13" lengthAdjust="spacing" textLength="97" x="89.5" y="250.4263">AttitudeTarget,</text><text fill="#000000" font-family="sans-serif" font-size="13" lengthAdjust="spacing" textLength="91" x="89.5" y="265.5591">&#35282;&#36895;&#24230;&#25511;&#21046;&#25351;&#20196;</text><path d="M549,290.625 L549,315.625 L669,315.625 L669,300.625 L659,290.625 L549,290.625 " fill="#FEFFDD" style="stroke:#181818;stroke-width:0.5;"/><path d="M659,290.625 L659,300.625 L669,300.625 L659,290.625 " fill="#FEFFDD" style="stroke:#181818;stroke-width:0.5;"/><text fill="#000000" font-family="sans-serif" font-size="13" lengthAdjust="spacing" textLength="99" x="555" y="307.6919">&#29366;&#24577;: PLANNING</text><line style="stroke:#181818;stroke-width:1.0;" x1="674" x2="716" y1="372.1563" y2="372.1563"/><line style="stroke:#181818;stroke-width:1.0;" x1="716" x2="716" y1="372.1563" y2="385.1563"/><line style="stroke:#181818;stroke-width:1.0;" x1="675" x2="716" y1="385.1563" y2="385.1563"/><polygon fill="#181818" points="685,381.1563,675,385.1563,685,389.1563,681,385.1563" style="stroke:#181818;stroke-width:1.0;"/><text fill="#000000" font-family="sans-serif" font-size="13" font-weight="bold" lengthAdjust="spacing" textLength="9" x="681" y="351.9575">2</text><text fill="#000000" font-family="sans-serif" font-size="13" lengthAdjust="spacing" textLength="78" x="694" y="336.8247">&#35835;&#21462;&#36335;&#24452;&#28857;&#65292;</text><text fill="#000000" font-family="sans-serif" font-size="13" lengthAdjust="spacing" textLength="101" x="698" y="351.9575">&#25110;&#35835;&#21462;rviz&#25351;&#20196;&#65292;</text><text fill="#000000" font-family="sans-serif" font-size="13" lengthAdjust="spacing" textLength="100" x="698" y="367.0903">&#25110;path planning</text><polygon fill="#181818" points="861,410.2891,871,414.2891,861,418.2891,865,414.2891" style="stroke:#181818;stroke-width:1.0;"/><line style="stroke:#181818;stroke-width:1.0;" x1="674" x2="867" y1="414.2891" y2="414.2891"/><text fill="#000000" font-family="sans-serif" font-size="13" font-weight="bold" lengthAdjust="spacing" textLength="8" x="681" y="409.2231">3</text><text fill="#000000" font-family="sans-serif" font-size="13" lengthAdjust="spacing" textLength="55" x="693" y="409.2231">&#32472;&#21046;Path</text><line style="stroke:#181818;stroke-width:1.0;" x1="674" x2="716" y1="443.4219" y2="443.4219"/><line style="stroke:#181818;stroke-width:1.0;" x1="716" x2="716" y1="443.4219" y2="456.4219"/><line style="stroke:#181818;stroke-width:1.0;" x1="675" x2="716" y1="456.4219" y2="456.4219"/><polygon fill="#181818" points="685,452.4219,675,456.4219,685,460.4219,681,456.4219" style="stroke:#181818;stroke-width:1.0;"/><text fill="#000000" font-family="sans-serif" font-size="13" font-weight="bold" lengthAdjust="spacing" textLength="9" x="681" y="438.356">4</text><text fill="#000000" font-family="sans-serif" font-size="13" lengthAdjust="spacing" textLength="52" x="694" y="438.356">&#35268;&#21010;&#36712;&#36857;</text><polygon fill="#181818" points="861,481.5547,871,485.5547,861,489.5547,865,485.5547" style="stroke:#181818;stroke-width:1.0;"/><line style="stroke:#181818;stroke-width:1.0;" x1="674" x2="867" y1="485.5547" y2="485.5547"/><text fill="#000000" font-family="sans-serif" font-size="13" font-weight="bold" lengthAdjust="spacing" textLength="9" x="681" y="480.4888">5</text><text fill="#000000" font-family="sans-serif" font-size="13" lengthAdjust="spacing" textLength="162" x="694" y="480.4888">&#32472;&#21046;traj, &#20063;&#26159;Path&#28040;&#24687;&#31867;&#22411;</text><path d="M540,498.5547 L540,523.5547 L669,523.5547 L669,508.5547 L659,498.5547 L540,498.5547 " fill="#FEFFDD" style="stroke:#181818;stroke-width:0.5;"/><path d="M659,498.5547 L659,508.5547 L669,508.5547 L659,498.5547 " fill="#FEFFDD" style="stroke:#181818;stroke-width:0.5;"/><text fill="#000000" font-family="sans-serif" font-size="13" lengthAdjust="spacing" textLength="108" x="546" y="515.6216">&#29366;&#24577;: EXECUTION</text><polygon fill="#181818" points="379.5,560.9531,369.5,564.9531,379.5,568.9531,375.5,564.9531" style="stroke:#181818;stroke-width:1.0;"/><line style="stroke:#181818;stroke-width:1.0;" x1="373.5" x2="673" y1="564.9531" y2="564.9531"/><text fill="#000000" font-family="sans-serif" font-size="13" font-weight="bold" lengthAdjust="spacing" textLength="9" x="385.5" y="552.3208">6</text><text fill="#000000" font-family="sans-serif" font-size="13" lengthAdjust="spacing" textLength="112" x="398.5" y="544.7544">action.send_goal,</text><text fill="#000000" font-family="sans-serif" font-size="13" lengthAdjust="spacing" textLength="195" x="398.5" y="559.8872">&#35774;&#32622;&#36712;&#36857;&#21442;&#25968;&#65292;&#37325;&#32622;&#36712;&#36857;&#24320;&#22987;&#26102;&#38388;</text><path d="M189.5,579.9531 L267.5,579.9531 L267.5,587.0859 L257.5,597.0859 L189.5,597.0859 L189.5,579.9531 " fill="#EEEEEE" style="stroke:#000000;stroke-width:1.5;"/><rect fill="none" height="119.6641" style="stroke:#000000;stroke-width:1.5;" width="713.5" x="189.5" y="579.9531"/><text fill="#000000" font-family="sans-serif" font-size="13" font-weight="bold" lengthAdjust="spacing" textLength="33" x="204.5" y="593.02">loop</text><text fill="#000000" font-family="sans-serif" font-size="11" font-weight="bold" lengthAdjust="spacing" textLength="103" x="282.5" y="592.1636">[when tracking]</text><polygon fill="#181818" points="260.5,614.2188,250.5,618.2188,260.5,622.2188,256.5,618.2188" style="stroke:#181818;stroke-width:1.0;"/><line style="stroke:#181818;stroke-width:1.0;" x1="254.5" x2="367.5" y1="618.2188" y2="618.2188"/><text fill="#000000" font-family="sans-serif" font-size="13" font-weight="bold" lengthAdjust="spacing" textLength="9" x="266.5" y="613.1528">7</text><text fill="#000000" font-family="sans-serif" font-size="13" lengthAdjust="spacing" textLength="78" x="279.5" y="613.1528">&#29983;&#25104;&#25511;&#21046;&#30446;&#26631;</text><polygon fill="#181818" points="662,658.4844,672,662.4844,662,666.4844,666,662.4844" style="stroke:#181818;stroke-width:1.0;"/><line style="stroke:#181818;stroke-width:1.0;" x1="368.5" x2="668" y1="662.4844" y2="662.4844"/><text fill="#000000" font-family="sans-serif" font-size="13" font-weight="bold" lengthAdjust="spacing" textLength="9" x="375.5" y="649.8521">8</text><text fill="#000000" font-family="sans-serif" font-size="13" lengthAdjust="spacing" textLength="158" x="388.5" y="642.2856">action.publish_feedback,</text><text fill="#000000" font-family="sans-serif" font-size="13" lengthAdjust="spacing" textLength="156" x="388.5" y="657.4185">&#21578;&#30693;&#36712;&#36857;&#36319;&#36394;&#30340;&#36827;&#24230;&#19982;&#35823;&#24046;</text><polygon fill="#181818" points="861,687.6172,871,691.6172,861,695.6172,865,691.6172" style="stroke:#181818;stroke-width:1.0;"/><line style="stroke:#181818;stroke-width:1.0;" x1="368.5" x2="867" y1="691.6172" y2="691.6172"/><text fill="#000000" font-family="sans-serif" font-size="13" font-weight="bold" lengthAdjust="spacing" textLength="9" x="375.5" y="686.5513">9</text><text fill="#000000" font-family="sans-serif" font-size="13" lengthAdjust="spacing" textLength="187" x="388.5" y="686.5513">&#21457;&#36865;tf2&#21644;Odom&#65292;&#34920;&#31034;&#24403;&#21069;&#20301;&#32622;</text><polygon fill="#181818" points="662,738.8828,672,742.8828,662,746.8828,666,742.8828" style="stroke:#181818;stroke-width:1.0;"/><line style="stroke:#181818;stroke-width:1.0;" x1="368.5" x2="668" y1="742.8828" y2="742.8828"/><text fill="#000000" font-family="sans-serif" font-size="13" font-weight="bold" lengthAdjust="spacing" textLength="19" x="375.5" y="730.2505">10</text><text fill="#000000" font-family="sans-serif" font-size="13" lengthAdjust="spacing" textLength="143" x="398.5" y="722.6841">action.set_succeeded,</text><text fill="#000000" font-family="sans-serif" font-size="13" lengthAdjust="spacing" textLength="102" x="398.5" y="737.8169">&#21578;&#30693;Traj&#39134;&#34892;&#25104;&#21151;</text><path d="M549,755.8828 L549,780.8828 L669,780.8828 L669,765.8828 L659,755.8828 L549,755.8828 " fill="#FEFFDD" style="stroke:#181818;stroke-width:0.5;"/><path d="M659,755.8828 L659,765.8828 L669,765.8828 L659,755.8828 " fill="#FEFFDD" style="stroke:#181818;stroke-width:0.5;"/><text fill="#000000" font-family="sans-serif" font-size="13" lengthAdjust="spacing" textLength="99" x="555" y="772.9497">&#29366;&#24577;: PLANNING</text><!--SRC=[XLHTJzjM6BxthpXgfMMLyg7HNMNI9CQWgaO36bJZef9bx9F4Qtnix1FOTXK-nZS4QA50gsQiBKJLb1HrWf2GviVCntQk-XVsdjZWG5cNYyX-_NuyvtcUzqIob1fMCf4mSXAXUIqNbtKjOU69F2OoZYcgb34bJH2aFDL9NXl7fY2Cwx-WMyDZNwClaA8RegLgjz3jGJMJfVTCZ8c02LNfhsWYBoccJdKJ0Wg2eg3ooz6n7fGQkuCGKGoHQ8OiJYW9MIVKr7CvR8f4L_15n-y67_OBXcHILLODG8YePef1xfMuGKKZFovQs9p4NHE9JZ7I8THT6BsQZMvFPLMAXHXogaNdhmEljU4ThBPdczxXT7jXZMrKXLWi9dmLH-vXmzb-HKtfv_Z7yrNtQSbPtA2IcS4mNrS95NhYoAzEFHZkWnHdwGXUEWK8_kN7Aia8T-E8RMoo-ZOxdd7MZzZY2Tihi-8csspQZTSTx1os82H2z5mUWiqeCYVLtqB0W8qjbzcxOxksndv_RzVdBw1wrGOhxdYdLVPXpfqvuyWqbQXQNaCMaOm0EmV6yTYDDrIo7hlxSwpv9pilSZIrMVypR-W-BGyy667r9n0YbafLdLZk-GwRttENJvp2jFEY_et0YZDUOVR7eP4UtcT-ptc_3HJOpHPKopd9iYxRkuqvjx7WbbTOlVXFOQRho3bTDr1QDp5NiKio5FisD5GIzLAmM5x1entoe-WHyOwsseKIgn_wZ3gh2m6NWX3fq6XoEo4z7MYVKwqibrw2haAa_Q80OjkDTK3VNbXrLbfshM3NteB390rJm19n3ogiik_iLjk5fP7-krvh5vwvp48aXE-lHXz7AskAQCY9GBWBK__K4UwASVs4YwtX-bwpRmwdmpIVxoGQ7knDfUwdxeNS1HbyTl2OlEu2aECHGSxYZX_ditoYBZyO4itwvTofNIrvRXAvZLqWTnYIX0XF5Riok5l438OtgQEHXNDfKS5fbM0bRfcJyG5ORtsgKtmpsACvjhZbDSjUw-o_HlCXKMIVbO1ytiavMNIcg-vnWxrSwQQBwtoDiVwn_hw7e_U7KbrswuRHVIKaaIHpaySjo1KpkfJhUApomMrMV81WTcVx7V06DqGOF2-menNdsKdxsT-1bwUoc8IhZ-1tzUxXn8KsXsDs5jCtiVkyulonS7FH9Mi1qC3IOXfZPHocSRniSzajlV6XUQSbh_OMDj1hFOSjiMlhNhNAJYitT_SfXrkWNPYcwHwsjJgaw1gSrZiekw_hhFc4BQtPJNvoVyV-5v-5gMZbPHdWOIK4Dmfwjb-zX4iIJisMIs2h6vpn6Ik5hJfssAsoZSCh3JzlYa_NI8WW_-F7ytqqslj3_z30GFGoBnhQA8eWzls_]--></g></svg>